<?xml version="1.0" encoding="utf-8"?>
<!-- Generator: Adobe Illustrator 22.0.0, SVG Export Plug-In . SVG Version: 6.00 Build 0)  -->
<svg version="1.1" id="Layer_1" xmlns="http://www.w3.org/2000/svg" xmlns:xlink="http://www.w3.org/1999/xlink" x="0px" y="0px"
	 viewBox="0 0 325 90" style="enable-background:new 0 0 325 90;" xml:space="preserve">
<style type="text/css">
	.st0{fill:#F24643;}
	.st1{fill:#EAEAEA;}
	.st2{fill:#FFE066;}
	.st3{fill:#C4C4C4;stroke:#5B5B5B;stroke-width:0.5;stroke-miterlimit:10;}
</style>
<g>
	<path class="st0" d="M43.7,21.7c5.6,0,10,1.3,13.2,4c3.1,2.7,4.7,6.6,4.7,11.7c0,5.1-1.6,9.1-4.7,11.8c-3.1,2.7-7.5,4.1-13.2,4.1
		H32.5v15.6c0,0.5-0.2,1-0.6,1.3c-0.4,0.4-0.8,0.6-1.3,0.6h-5.7c-0.5,0-1-0.2-1.3-0.6c-0.4-0.4-0.6-0.8-0.6-1.3V23.6
		c0-0.5,0.2-1,0.6-1.3c0.4-0.4,0.8-0.6,1.3-0.6H43.7z M32.5,44.4h10.8c2.7,0,4.8-0.5,6.4-1.6c1.6-1,2.4-2.9,2.4-5.5
		c0-2.6-0.8-4.4-2.4-5.4c-1.6-1-3.7-1.5-6.4-1.5H32.5V44.4z"/>
	<rect x="73.5" y="50" class="st1" width="26" height="13"/>
	<rect x="73.5" y="36" class="st2" width="26" height="13"/>
	<path class="st0" d="M86.8,29.3c2.9,0,5.4,0.4,7.8,1.3c2.3,0.9,4.3,2.1,6,3.7c1.7,1.6,3,3.4,4.1,5.5c1,2.1,1.6,4.3,1.8,6.7
		c0.1,0.5,0.1,1.1,0.1,1.8c0,0.7,0,1.5,0,2.2c0,0.7,0,1.4,0,2.1c0,0.7,0,1.3-0.1,1.8c-0.2,2.4-0.8,4.6-1.8,6.7c-1,2.1-2.3,3.9-4,5.4
		c-1.7,1.5-3.7,2.7-6,3.6c-2.3,0.9-4.9,1.3-7.8,1.3s-5.4-0.4-7.8-1.3c-2.3-0.9-4.3-2.1-6-3.6c-1.7-1.5-3-3.3-4-5.4
		c-1-2.1-1.6-4.3-1.8-6.7c-0.1-0.5-0.1-1.1-0.1-1.8c0-0.7,0-1.4,0-2.1c0-0.7,0-1.5,0-2.2c0-0.7,0.1-1.3,0.1-1.8
		c0.2-2.4,0.7-4.6,1.8-6.7c1-2.1,2.4-3.9,4.1-5.5c1.7-1.6,3.7-2.8,6-3.7C81.4,29.7,84,29.3,86.8,29.3z M96.3,46.8
		c-0.2-1.6-0.5-3-1.1-4c-0.6-1.1-1.3-1.9-2.2-2.5C92,39.6,91.1,39.2,90,39c-1-0.2-2.1-0.4-3.2-0.4c-1.1,0-2.2,0.1-3.2,0.4
		c-1,0.2-2,0.7-2.9,1.3c-0.9,0.6-1.6,1.5-2.2,2.5c-0.6,1.1-1,2.4-1.1,4c-0.1,0.4-0.1,0.9-0.1,1.6c0,0.6,0,1.3,0,2c0,0.7,0,1.3,0,2
		c0,0.7,0.1,1.2,0.1,1.5c0.2,1.6,0.5,3,1.1,4c0.6,1.1,1.3,1.9,2.2,2.5c0.9,0.6,1.8,1.1,2.9,1.3c1,0.2,2.1,0.4,3.2,0.4
		c1.1,0,2.2-0.1,3.2-0.4c1-0.2,2-0.7,2.9-1.3c0.9-0.6,1.6-1.5,2.2-2.5c0.6-1.1,1-2.4,1.1-4c0.1-0.4,0.1-0.9,0.1-1.5c0-0.7,0-1.3,0-2
		c0-0.7,0-1.3,0-2C96.4,47.8,96.3,47.2,96.3,46.8z"/>
	<path class="st0" d="M122.3,56.8v12c0,0.5-0.2,1-0.6,1.3c-0.4,0.4-0.8,0.6-1.3,0.6h-5.3c-0.5,0-1-0.2-1.3-0.6
		c-0.4-0.4-0.6-0.8-0.6-1.3V22.9c0-0.5,0.2-1,0.6-1.3c0.4-0.4,0.8-0.6,1.3-0.6h5.3c0.5,0,1,0.2,1.3,0.6c0.4,0.4,0.6,0.8,0.6,1.3
		v22.1l11.7-9.5c0.3-0.2,0.6-0.5,1.1-0.8c0.4-0.3,1-0.4,1.6-0.4h7.1c0.5,0,0.9,0.2,1.2,0.5c0.3,0.3,0.5,0.7,0.5,1.2
		c0,0.2,0,0.5-0.1,0.7c-0.1,0.2-0.3,0.5-0.7,0.7l-16.3,13.2l17.9,17.2c0.3,0.3,0.5,0.5,0.6,0.7c0.1,0.2,0.1,0.4,0.1,0.6
		c0,0.5-0.2,0.9-0.5,1.2c-0.3,0.3-0.7,0.5-1.2,0.5h-6.8c-0.7,0-1.3-0.1-1.8-0.4c-0.5-0.3-0.9-0.5-1.1-0.8L122.3,56.8z"/>
	<path class="st0" d="M150.1,52.5c0-2.6,0.4-5.1,1.2-7.4c0.8-2.3,1.9-4.3,3.4-6c1.5-1.7,3.3-3,5.4-4s4.5-1.5,7.1-1.5s5,0.5,7.1,1.4
		c2.1,1,3.9,2.2,5.4,3.9c1.5,1.6,2.6,3.5,3.5,5.7c0.8,2.2,1.2,4.4,1.2,6.8v3.1c0,0.5-0.2,1-0.6,1.3c-0.4,0.4-0.8,0.6-1.3,0.6h-23.4
		c0,1.1,0.2,2,0.7,2.8c0.4,0.8,1,1.5,1.8,2.1c0.7,0.6,1.6,1,2.6,1.3c1,0.3,2,0.4,3,0.4c1.5,0,2.7-0.2,3.6-0.5
		c0.9-0.3,1.7-0.7,2.3-1.2c0.5-0.4,0.9-0.6,1.3-0.8c0.3-0.1,0.8-0.2,1.3-0.2h5.6c0.5,0,1,0.2,1.4,0.6c0.4,0.4,0.6,0.8,0.5,1.3
		c0,0.7-0.4,1.5-1.1,2.5c-0.7,1-1.7,2-3,3c-1.4,1-3,1.8-5,2.5c-2,0.7-4.3,1.1-6.9,1.1s-5-0.5-7.1-1.4s-3.9-2.2-5.4-3.9
		c-1.5-1.7-2.6-3.7-3.4-6C150.5,57.9,150.1,55.3,150.1,52.5z M167.2,42c-1.4,0-2.5,0.2-3.5,0.6c-1,0.4-1.8,0.9-2.4,1.5
		c-0.7,0.6-1.2,1.3-1.5,2.1c-0.3,0.8-0.6,1.5-0.7,2.2H175c-0.1-0.7-0.3-1.4-0.5-2.2c-0.3-0.8-0.7-1.5-1.3-2.1s-1.4-1.1-2.3-1.5
		C169.9,42.2,168.7,42,167.2,42z M169.6,19.9c0.5-0.6,0.9-1,1.3-1.1s0.8-0.2,1.3-0.2h6.7c0.9,0,1.3,0.5,1.3,1.4
		c0,0.3-0.1,0.6-0.4,0.8l-8.6,7.1c-0.4,0.3-0.8,0.6-1.2,0.8c-0.4,0.2-1,0.4-1.8,0.4h-3.8c-0.7,0-1.1-0.4-1.1-1.1
		c0-0.3,0.1-0.6,0.3-0.9L169.6,19.9z"/>
	<path class="st2" d="M205.9,34.3h9.7c0.5,0,1,0.2,1.3,0.6c0.4,0.4,0.6,0.8,0.6,1.3v4.6c0,0.5-0.2,1-0.6,1.3
		c-0.4,0.4-0.8,0.6-1.3,0.6h-9.7v26.1c0,0.5-0.2,1-0.6,1.3c-0.4,0.4-0.8,0.6-1.3,0.6h-5.3c-0.5,0-1-0.2-1.3-0.6
		c-0.4-0.4-0.6-0.8-0.6-1.3V42.7h-4.6c-0.5,0-1-0.2-1.3-0.6c-0.4-0.4-0.6-0.8-0.6-1.3v-4.6c0-0.5,0.2-1,0.6-1.3
		c0.4-0.4,0.8-0.6,1.3-0.6h4.6v-3.1c0-2.2,0.3-4.1,1-5.7c0.7-1.6,1.6-2.8,2.8-3.8c1.2-1,2.7-1.7,4.4-2.1c1.7-0.4,3.6-0.6,5.7-0.6
		h5.7c0.5,0,1,0.2,1.3,0.6c0.4,0.4,0.6,0.8,0.6,1.3v4.6c0,0.5-0.2,1-0.6,1.3c-0.4,0.4-0.8,0.6-1.3,0.6h-5c-1.8,0-3.1,0.3-4.1,0.9
		s-1.4,1.8-1.4,3.6V34.3z"/>
	<path class="st2" d="M224.6,43.3c0.2-1,0.6-2,1.3-3.1c0.7-1.1,1.6-2.2,2.9-3.2c1.2-1,2.8-1.8,4.5-2.4c1.8-0.6,3.9-0.9,6.3-0.9
		c2.4,0,4.5,0.3,6.4,0.9c1.9,0.6,3.6,1.6,4.9,2.8c1.4,1.2,2.4,2.7,3.2,4.6c0.7,1.8,1.1,4,1.1,6.3v20.6c0,0.5-0.2,1-0.6,1.3
		c-0.4,0.4-0.8,0.6-1.3,0.6h-5.3c-0.5,0-1-0.2-1.3-0.6c-0.4-0.4-0.6-0.8-0.6-1.3v-2.3c-1,1.4-2.4,2.5-4.2,3.5c-1.8,1-4.2,1.4-7,1.4
		c-2,0-3.8-0.3-5.4-0.8c-1.6-0.5-2.9-1.3-4-2.3c-1.1-1-1.9-2.1-2.5-3.5c-0.6-1.3-0.9-2.8-0.9-4.4c0-3.2,1.1-5.7,3.4-7.6
		s5.3-3.1,9.2-3.7l11.4-2c0-1.9-0.6-3.3-1.9-4.1c-1.3-0.8-2.8-1.2-4.7-1.2c-1.2,0-2.1,0.2-2.7,0.5c-0.7,0.3-1.3,0.8-1.9,1.3
		c-0.4,0.4-0.8,0.6-1.2,0.8c-0.4,0.1-0.7,0.2-1.2,0.2h-6.5c-0.5,0-0.9-0.1-1.2-0.4C224.6,44.1,224.5,43.7,224.6,43.3z M236.3,63
		c1.6,0,3-0.2,4.2-0.7c1.2-0.4,2.3-1,3.1-1.8c0.8-0.7,1.5-1.6,1.9-2.5c0.4-0.9,0.6-1.9,0.6-2.9v-0.7l-9.5,1.7
		c-1.9,0.3-3.3,0.8-4.1,1.4c-0.8,0.6-1.3,1.5-1.3,2.6c0,1,0.5,1.7,1.5,2.2C233.8,62.8,235,63,236.3,63z"/>
	<path class="st2" d="M277.2,70.1c-0.3-0.4-0.6-0.8-0.8-1.2l-14.1-32.3c0-0.1-0.1-0.3-0.1-0.5c0-0.5,0.2-1,0.6-1.3
		c0.4-0.4,0.8-0.6,1.3-0.6h5.3c0.7,0,1.2,0.2,1.5,0.6c0.3,0.4,0.6,0.7,0.8,1.1l9.3,21.7l9.3-21.7c0.2-0.4,0.4-0.7,0.8-1.1
		c0.3-0.4,0.8-0.6,1.5-0.6h5.3c0.5,0,1,0.2,1.3,0.6c0.4,0.4,0.6,0.8,0.6,1.3c0,0.2,0,0.3-0.1,0.5l-14.1,32.3
		c-0.2,0.4-0.4,0.8-0.8,1.2c-0.3,0.4-0.8,0.6-1.5,0.6h-4.6C278,70.7,277.5,70.5,277.2,70.1z"/>
	<rect x="74.5" y="49" class="st0" width="25" height="2"/>
	<circle class="st3" cx="87" cy="50" r="3"/>
</g>
</svg>
