<?xml version="1.0" encoding="utf-8"?>
<!-- Generator: Adobe Illustrator 22.0.0, SVG Export Plug-In . SVG Version: 6.00 Build 0)  -->
<svg version="1.1" id="Layer_1" xmlns="http://www.w3.org/2000/svg" xmlns:xlink="http://www.w3.org/1999/xlink" x="0px" y="0px"
	 viewBox="0 0 260 260" style="enable-background:new 0 0 260 260;" xml:space="preserve">
<style type="text/css">
	.st0{fill:#EAEAEA;}
	.st1{fill:#FFE066;}
	.st2{fill:#F24643;}
	.st3{fill:#C4C4C4;stroke:#5B5B5B;stroke-width:2;stroke-miterlimit:10;}
</style>
<g>
	<rect x="65.7" y="128.4" class="st0" width="125.7" height="62.9"/>
	<rect x="65.7" y="60.7" class="st1" width="125.7" height="62.9"/>
	<rect x="75.7" y="123.5" class="st2" width="112.3" height="9.7"/>
	<path class="st2" d="M130.2,28.1c13.8,0,26.3,2.1,37.5,6.4c11.2,4.3,20.9,10.2,29,17.7c8.2,7.5,14.7,16.4,19.6,26.4
		c4.9,10.1,7.7,20.9,8.5,32.4c0.2,2.3,0.4,5.2,0.4,8.7c0,3.5,0,7,0,10.6c0,3.5,0,7,0,10.4c0,3.4-0.1,6.2-0.4,8.5
		c-1,11.6-3.9,22.4-8.7,32.4c-4.8,10.1-11.3,18.8-19.4,26.2c-8.2,7.4-17.9,13.3-29,17.5c-11.2,4.3-23.7,6.4-37.5,6.4
		s-26.3-2.1-37.5-6.4c-11.2-4.3-20.9-10.1-29-17.5c-8.2-7.4-14.7-16.2-19.4-26.2c-4.8-10.1-7.7-20.9-8.7-32.4
		c-0.3-2.3-0.4-5.1-0.6-8.5c-0.1-3.4-0.2-6.8-0.2-10.4c0-3.5,0.1-7,0.2-10.6c0.1-3.5,0.3-6.4,0.6-8.7c0.8-11.6,3.6-22.4,8.5-32.4
		c4.9-10.1,11.4-18.9,19.6-26.4c8.2-7.5,17.9-13.5,29-17.7C103.8,30.3,116.4,28.1,130.2,28.1z M175.8,113
		c-0.8-7.8-2.6-14.3-5.5-19.4c-2.9-5.2-6.5-9.2-10.8-12.3c-4.3-3-8.9-5.1-14-6.2c-5-1.1-10.2-1.7-15.5-1.7c-5.3,0-10.4,0.6-15.5,1.7
		c-5,1.1-9.7,3.2-14,6.2c-4.3,3-7.9,7.1-10.8,12.3c-2.9,5.2-4.7,11.6-5.5,19.4c-0.3,2-0.4,4.5-0.6,7.5c-0.1,3-0.2,6.2-0.2,9.4
		c0,3.3,0.1,6.5,0.2,9.6c0.1,3.1,0.3,5.6,0.6,7.4c0.8,7.8,2.6,14.3,5.5,19.4c2.9,5.2,6.5,9.2,10.8,12.3c4.3,3,8.9,5.1,14,6.2
		c5,1.1,10.2,1.7,15.5,1.7c5.3,0,10.4-0.6,15.5-1.7c5-1.1,9.7-3.2,14-6.2c4.3-3,7.9-7.1,10.8-12.3c2.9-5.2,4.7-11.6,5.5-19.4
		c0.2-1.8,0.4-4.2,0.4-7.4s0-6.3,0-9.6c0-3.3,0-6.4,0-9.4C176.2,117.5,176.1,115,175.8,113z"/>
	<circle class="st3" cx="131" cy="128.4" r="14.5"/>
</g>
</svg>
