<svg xmlns="http://www.w3.org/2000/svg" viewBox="0 0 276.78 52.85"><title>pokefav-full-title</title><path d="M43.67,26.7q8.47,0,13.16,4t4.69,11.69q0,7.69-4.69,11.76T43.67,58.2H32.47V73.81a1.91,1.91,0,0,1-1.89,1.89H24.91A1.91,1.91,0,0,1,23,73.81V28.59a1.91,1.91,0,0,1,1.89-1.89ZM32.47,49.45H43.32a11.4,11.4,0,0,0,6.37-1.58q2.39-1.57,2.38-5.49T49.69,37a11.85,11.85,0,0,0-6.37-1.5H32.47Z" transform="translate(-23.02 -23.55)" style="fill:#f24643"/><rect x="50.48" y="31.45" width="26" height="13" style="fill:#eaeaea"/><rect x="50.48" y="17.45" width="26" height="13" style="fill:#ffe066"/><path d="M86.84,34.27A21.45,21.45,0,0,1,94.6,35.6a18.08,18.08,0,0,1,10.07,9.13,17.73,17.73,0,0,1,1.75,6.71,17.05,17.05,0,0,1,.08,1.79v4.33a16.63,16.63,0,0,1-.08,1.75A19.38,19.38,0,0,1,104.63,66a17.38,17.38,0,0,1-4,5.43,18.76,18.76,0,0,1-6,3.62,23.3,23.3,0,0,1-15.52,0,18.76,18.76,0,0,1-6-3.62,17.38,17.38,0,0,1-4-5.43,19.38,19.38,0,0,1-1.79-6.71c-.05-.46-.09-1.05-.12-1.75s0-1.42,0-2.15,0-1.45,0-2.18.07-1.33.12-1.79A17.73,17.73,0,0,1,69,44.73,18.08,18.08,0,0,1,79.08,35.6,21.45,21.45,0,0,1,86.84,34.27Zm9.44,17.55a10.16,10.16,0,0,0-1.13-4,7.58,7.58,0,0,0-2.23-2.54A8.13,8.13,0,0,0,90,44a14.8,14.8,0,0,0-6.4,0,8.26,8.26,0,0,0-2.89,1.29,7.67,7.67,0,0,0-2.22,2.54,10.16,10.16,0,0,0-1.13,4c-.05.42-.09.94-.12,1.57s0,1.27,0,2,0,1.33,0,2,.07,1.15.12,1.52a10.16,10.16,0,0,0,1.13,4,7.57,7.57,0,0,0,2.22,2.54,8.26,8.26,0,0,0,2.89,1.29,14.8,14.8,0,0,0,6.4,0,8.13,8.13,0,0,0,2.88-1.29,7.49,7.49,0,0,0,2.23-2.54,10.16,10.16,0,0,0,1.13-4,11.74,11.74,0,0,0,.08-1.52V53.39A13.47,13.47,0,0,0,96.28,51.82Z" transform="translate(-23.02 -23.55)" style="fill:#f24643"/><path d="M122.28,61.77v12a1.91,1.91,0,0,1-1.89,1.89h-5.32a1.91,1.91,0,0,1-1.89-1.89V27.89A1.91,1.91,0,0,1,115.07,26h5.32a1.91,1.91,0,0,1,1.89,1.89v22L134,40.49a10.29,10.29,0,0,1,1.09-.77,3,3,0,0,1,1.64-.42h7.14A1.67,1.67,0,0,1,145.52,41a2.07,2.07,0,0,1-.1.66,1.86,1.86,0,0,1-.67.74L128.44,55.54l17.85,17.15a2.85,2.85,0,0,1,.56.7A1.46,1.46,0,0,1,147,74a1.67,1.67,0,0,1-1.68,1.68h-6.79a3.53,3.53,0,0,1-1.78-.42,5.36,5.36,0,0,1-1.09-.77Z" transform="translate(-23.02 -23.55)" style="fill:#f24643"/><path d="M150.07,57.5a22.71,22.71,0,0,1,1.19-7.39,17.84,17.84,0,0,1,3.43-6,16,16,0,0,1,5.43-4,16.73,16.73,0,0,1,7.1-1.47A17.27,17.27,0,0,1,174.33,40a16.63,16.63,0,0,1,5.42,3.85,17.21,17.21,0,0,1,3.47,5.67,19.39,19.39,0,0,1,1.22,6.83v3.15a1.91,1.91,0,0,1-1.89,1.89H159.17a5.75,5.75,0,0,0,.67,2.83,6.22,6.22,0,0,0,1.78,2.07,7.91,7.91,0,0,0,2.59,1.26,10.89,10.89,0,0,0,3,.42,11.82,11.82,0,0,0,3.64-.46,7.56,7.56,0,0,0,2.31-1.15,7,7,0,0,1,1.26-.77,3.46,3.46,0,0,1,1.33-.21h5.6a2,2,0,0,1,1.37.56,1.56,1.56,0,0,1,.52,1.33,5.89,5.89,0,0,1-1.08,2.52,12.12,12.12,0,0,1-3,3,19.62,19.62,0,0,1-5,2.52,20.76,20.76,0,0,1-6.9,1.05,17.84,17.84,0,0,1-7.1-1.36,15.08,15.08,0,0,1-5.43-3.89,17.42,17.42,0,0,1-3.43-6A23.54,23.54,0,0,1,150.07,57.5ZM167.22,47a9.13,9.13,0,0,0-3.46.59,7.67,7.67,0,0,0-2.42,1.54,6.88,6.88,0,0,0-1.5,2.1,7.81,7.81,0,0,0-.67,2.21H175a12.31,12.31,0,0,0-.52-2.21,5.83,5.83,0,0,0-1.26-2.1,6.63,6.63,0,0,0-2.31-1.54A9.88,9.88,0,0,0,167.22,47Zm2.38-22.12a3.81,3.81,0,0,1,1.3-1.12,3.48,3.48,0,0,1,1.29-.21h6.65c.89,0,1.33.47,1.33,1.4a1.15,1.15,0,0,1-.35.84l-8.61,7.07a6.42,6.42,0,0,1-1.19.84,3.66,3.66,0,0,1-1.75.35h-3.85a1,1,0,0,1-1.12-1.12,1.63,1.63,0,0,1,.35-.91Z" transform="translate(-23.02 -23.55)" style="fill:#f24643"/><path d="M205.86,39.3h9.73a1.91,1.91,0,0,1,1.89,1.89v4.62a1.91,1.91,0,0,1-1.89,1.89h-9.73V73.81A1.91,1.91,0,0,1,204,75.7h-5.32a1.91,1.91,0,0,1-1.89-1.89V47.7h-4.62a1.91,1.91,0,0,1-1.89-1.89V41.19a1.91,1.91,0,0,1,1.89-1.89h4.62V36.15a14.91,14.91,0,0,1,1-5.71,9.52,9.52,0,0,1,2.8-3.81,11,11,0,0,1,4.38-2.1,23.8,23.8,0,0,1,5.7-.63h5.67a1.91,1.91,0,0,1,1.89,1.89v4.62a1.91,1.91,0,0,1-1.89,1.89h-5a7.26,7.26,0,0,0-4.06.94c-.93.63-1.4,1.84-1.4,3.61Z" transform="translate(-23.02 -23.55)" style="fill:#ffe066"/><path d="M224.62,48.26a9.68,9.68,0,0,1,1.29-3.15A12.15,12.15,0,0,1,228.78,42a15.68,15.68,0,0,1,4.55-2.42,19,19,0,0,1,6.27-.94,20.52,20.52,0,0,1,6.44.94A14,14,0,0,1,251,42.31a12,12,0,0,1,3.19,4.58,16.75,16.75,0,0,1,1.12,6.34V73.81a1.91,1.91,0,0,1-1.89,1.89h-5.32a1.91,1.91,0,0,1-1.89-1.89V71.5A11.73,11.73,0,0,1,241.94,75a15.16,15.16,0,0,1-7,1.44,16.68,16.68,0,0,1-5.39-.81,10.94,10.94,0,0,1-4-2.27A10.35,10.35,0,0,1,223,69.85a10.76,10.76,0,0,1-.87-4.37,9.12,9.12,0,0,1,3.43-7.56,19.78,19.78,0,0,1,9.17-3.71l11.41-2a4.42,4.42,0,0,0-1.89-4.06A8.69,8.69,0,0,0,239.6,47a6.14,6.14,0,0,0-2.73.49A8,8,0,0,0,235,48.82a4.21,4.21,0,0,1-1.16.77,3.06,3.06,0,0,1-1.15.21h-6.51a1.75,1.75,0,0,1-1.19-.42A1.09,1.09,0,0,1,224.62,48.26ZM236.31,68a12.31,12.31,0,0,0,4.23-.67,9.27,9.27,0,0,0,3.12-1.78A7.53,7.53,0,0,0,245.55,63a6.91,6.91,0,0,0,.63-2.87v-.7l-9.52,1.68a10.07,10.07,0,0,0-4.13,1.43,3.05,3.05,0,0,0-1.26,2.56,2.29,2.29,0,0,0,1.5,2.17A8.31,8.31,0,0,0,236.31,68Z" transform="translate(-23.02 -23.55)" style="fill:#ffe066"/><path d="M277.19,75.14a4.4,4.4,0,0,1-.77-1.19L262.35,41.68a1.45,1.45,0,0,1-.07-.49,1.79,1.79,0,0,1,.56-1.33,1.83,1.83,0,0,1,1.33-.56h5.25a2,2,0,0,1,1.54.56,5.35,5.35,0,0,1,.77,1.12L281,62.68,290.35,41a5.35,5.35,0,0,1,.77-1.12,2,2,0,0,1,1.54-.56h5.25a1.91,1.91,0,0,1,1.89,1.89,1.45,1.45,0,0,1-.07.49L285.66,74a4.94,4.94,0,0,1-.77,1.19,2,2,0,0,1-1.54.56h-4.62A1.94,1.94,0,0,1,277.19,75.14Z" transform="translate(-23.02 -23.55)" style="fill:#ffe066"/><rect x="51.48" y="30.45" width="25" height="2" style="fill:#f24643"/><circle cx="63.48" cy="31.45" r="3" style="fill:#1688b9"/></svg>