<svg xmlns="http://www.w3.org/2000/svg" viewBox="0 0 190.52 203.73"><title>pokefav-logo</title><rect x="30.94" y="100.24" width="125.73" height="62.87" style="fill:#eaeaea"/><rect x="30.94" y="32.54" width="125.73" height="62.87" style="fill:#ffe066"/><rect x="40.97" y="95.41" width="112.26" height="9.67" style="fill:#f24643"/><path d="M130.19,28.13q20.75,0,37.54,6.42a89.63,89.63,0,0,1,29.05,17.73,88.15,88.15,0,0,1,19.61,26.41,85.92,85.92,0,0,1,8.49,32.45,81.43,81.43,0,0,1,.38,8.67v20.94a79.32,79.32,0,0,1-.38,8.49,93.8,93.8,0,0,1-8.68,32.45,83.27,83.27,0,0,1-19.42,26.22,91.11,91.11,0,0,1-29.05,17.53q-16.8,6.42-37.54,6.43t-37.54-6.43A90.78,90.78,0,0,1,63.6,207.91a83.3,83.3,0,0,1-19.43-26.22,93.79,93.79,0,0,1-8.67-32.45q-.39-3.39-.57-8.49t-.19-10.37c0-3.53.06-7,.19-10.57s.31-6.41.57-8.67A85.92,85.92,0,0,1,44,78.69,88,88,0,0,1,63.6,52.28,89.31,89.31,0,0,1,92.65,34.55Q109.44,28.13,130.19,28.13ZM175.84,113q-1.14-11.68-5.47-19.43a36.74,36.74,0,0,0-10.76-12.26,38.66,38.66,0,0,0-14-6.22,71.24,71.24,0,0,0-30.94,0,38.63,38.63,0,0,0-14,6.22A36.61,36.61,0,0,0,90,93.59q-4.33,7.74-5.47,19.43c-.25,2-.44,4.53-.56,7.55s-.19,6.16-.19,9.43,0,6.47.19,9.62.31,5.6.56,7.36q1.13,11.69,5.47,19.43a36.47,36.47,0,0,0,10.75,12.25,38.48,38.48,0,0,0,14,6.23,71.24,71.24,0,0,0,30.94,0,38.51,38.51,0,0,0,14-6.23,36.61,36.61,0,0,0,10.76-12.25q4.33-7.74,5.47-19.43a55.61,55.61,0,0,0,.37-7.36V120.57A63.22,63.22,0,0,0,175.84,113Z" transform="translate(-34.74 -28.13)" style="fill:#f24643"/><circle cx="95.26" cy="100.24" r="14.51" style="fill:#1688b9"/></svg>