<?xml version="1.0" standalone="no"?>
<!DOCTYPE svg PUBLIC "-//W3C//DTD SVG 20010904//EN"
 "http://www.w3.org/TR/2001/REC-SVG-20010904/DTD/svg10.dtd">
<svg version="1.0" xmlns="http://www.w3.org/2000/svg"
 width="426.000000pt" height="426.000000pt" viewBox="0 0 426.000000 426.000000"
 preserveAspectRatio="xMidYMid meet">
<metadata>
Created by potrace 1.11, written by Peter Selinger 2001-2013
</metadata>
<g transform="translate(0.000000,426.000000) scale(0.100000,-0.100000)"
fill="#000000" stroke="none">
<path d="M1818 4235 c-322 -44 -595 -144 -844 -310 -392 -261 -667 -661 -767
-1116 -36 -159 -47 -284 -54 -579 -13 -593 57 -949 256 -1295 222 -384 582
-673 1023 -819 372 -123 876 -139 1268 -41 657 165 1144 619 1333 1246 68 222
79 321 84 721 5 384 -4 565 -38 732 -79 388 -304 772 -598 1017 -296 248 -630
393 -1019 443 -151 20 -503 20 -644 1z m602 -955 c183 -37 323 -112 437 -232
151 -160 217 -347 239 -675 l7 -103 -339 0 -339 0 -30 51 c-100 170 -334 199
-474 59 -26 -26 -53 -62 -60 -79 l-13 -31 -334 0 -334 0 0 69 c0 106 27 291
56 383 104 331 336 521 700 573 135 19 348 13 484 -15z m-560 -1245 c17 -44
98 -122 153 -146 140 -62 319 -1 388 134 l19 37 342 0 341 0 -6 -147 c-20
-453 -157 -709 -462 -859 -147 -72 -239 -88 -495 -88 -262 -1 -348 15 -505 93
-277 137 -426 396 -450 782 -3 52 -8 122 -11 157 l-5 62 341 0 340 0 10 -25z"/>
</g>
</svg>
